<svg width="24" height="24" viewBox="0 0 24 24" fill="none" xmlns="http://www.w3.org/2000/svg">
<path d="M22.9664 0.800001V1.28104e-06C23.1785 1.28104e-06 23.382 0.0842868 23.532 0.234316C23.6821 0.384345 23.7664 0.587828 23.7664 0.800001H22.9664ZM22.9664 7.2H23.7664C23.7666 7.35843 23.7199 7.51338 23.632 7.64521C23.5441 7.77703 23.4191 7.87979 23.2727 7.94046C23.1263 8.00112 22.9653 8.01697 22.8099 7.98598C22.6545 7.955 22.5118 7.87857 22.4 7.7664L22.9664 7.2ZM16.5664 0.800001L16 1.3664C15.8878 1.25451 15.8114 1.11184 15.7804 0.956466C15.7494 0.801093 15.7652 0.640017 15.8259 0.49366C15.8866 0.347303 15.9893 0.222255 16.1212 0.134369C16.253 0.0464833 16.4079 -0.000282183 16.5664 1.28104e-06V0.800001ZM20.3328 4.5664L1.13276 23.7664L-4.3869e-05 22.6336L19.2 3.4336L20.3328 4.5664ZM23.7664 0.800001V7.2H22.1664V0.800001H23.7664ZM22.4 7.7664L16 1.3664L17.1328 0.233601L23.5328 6.6336L22.4 7.7664ZM16.5664 1.28104e-06H22.9664V1.6H16.5664V1.28104e-06Z" fill="#FFC66E"/>
</svg>
